# xmcd
#
# Track frame offsets:
#	150
#	27289
#	52123
#	77960
#	107542
#	124980
#	146192
#	171655
#	196414
#	220511
#
# Disc length: 3175 seconds
#
# Revision: 6
# Processed by: cddbd v1.5.2PL0 Copyright (c) Steve Scherf et al.
# Submitted via: Jack! The Knife 20 Magnifico
#
DISCID=970c650a
DTITLE=Flotsam and Jetsam - No Place For Disgrace
DYEAR=1988
DGENRE=Metal
TTITLE0=No Place For Disgrace
TTITLE1=Dreams Of Death
TTITLE2=N.E. Terror
TTITLE3=Escape From Within
TTITLE4=Saturday Night's Alright For Fighting
TTITLE5=Hard On You
TTITLE6=I Live You Die
TTITLE7=Misguided Fortune
TTITLE8=P.A.A.B.
TTITLE9=The Jones
EXTD=Bill Metoyer and Flotsam and Jetsam
EXTT0=Gilbert, Newsted, Smith, Knutson, Carlson
EXTT1=Gilbert, Smith, Knutson, Carlson, Spencer
EXTT2=Gilbert, Newsted, Braverman, Smith, Knutson, Carlson
EXTT3=Gilbert, Braverman, Smith, Knutson, Carlson, Spencer
EXTT4=Elton John, Bernie Taupin
EXTT5=Gilbert, Smith, Knutson, Carlson, Spencer
EXTT6=Gilbert, Newsted, Smith, Knutson, Carlson
EXTT7=Gilbert, Smith, Gregory, Knutson, Carlson
EXTT8=Gilbert, Braverman, Smith, Knutson, Carlson
EXTT9=Gilbert, Smith, Knutson, Carlson
PLAYORDER=
